<svg width="24" height="24" viewBox="0 0 24 24" fill="none" xmlns="http://www.w3.org/2000/svg">
<g opacity="0.28">
<path d="M10.5257 3.27338C11.2423 2.24965 12.7584 2.24966 13.475 3.27338L14.1616 4.25434C14.5629 4.8276 15.26 5.11635 15.9491 4.99474L17.1283 4.78663C18.3589 4.56945 19.4309 5.64149 19.2137 6.87207L19.0056 8.05126C18.884 8.74035 19.1728 9.43747 19.746 9.83873L20.727 10.5254C21.7507 11.242 21.7507 12.7581 20.727 13.4747L19.746 14.1613C19.1728 14.5626 18.884 15.2597 19.0056 15.9488L19.2137 17.128C19.4309 18.3585 18.3589 19.4306 17.1283 19.2134L15.9491 19.0053C15.26 18.8837 14.5629 19.1724 14.1616 19.7457L13.475 20.7267C12.7584 21.7504 11.2423 21.7504 10.5257 20.7267L9.83904 19.7457C9.43777 19.1724 8.74065 18.8837 8.05157 19.0053L6.87238 19.2134C5.6418 19.4306 4.56975 18.3585 4.78693 17.128L4.99504 15.9488C5.11666 15.2597 4.8279 14.5626 4.25465 14.1613L3.27368 13.4747C2.24996 12.7581 2.24996 11.242 3.27368 10.5254L4.25465 9.83873C4.8279 9.43747 5.11666 8.74035 4.99504 8.05126L4.78693 6.87207C4.56975 5.64149 5.6418 4.56945 6.87238 4.78663L8.05157 4.99474C8.74065 5.11635 9.43778 4.8276 9.83904 4.25434L10.5257 3.27338Z" stroke="black" stroke-width="2"/>
<circle cx="12" cy="12" r="3.25" stroke="black" stroke-width="2"/>
</g>
</svg>
