<svg width="25" height="24" viewBox="0 0 25 24" fill="none" xmlns="http://www.w3.org/2000/svg">
<path fill-rule="evenodd" clip-rule="evenodd" d="M3.93335 12C3.93335 10.896 4.82935 10 5.93335 10C7.03735 10 7.93335 10.896 7.93335 12C7.93335 13.104 7.03735 14 5.93335 14C4.82935 14 3.93335 13.104 3.93335 12ZM12.9333 10C11.8293 10 10.9333 10.896 10.9333 12C10.9333 13.104 11.8293 14 12.9333 14C14.0373 14 14.9333 13.104 14.9333 12C14.9333 10.896 14.0373 10 12.9333 10ZM19.9333 10C18.8293 10 17.9333 10.896 17.9333 12C17.9333 13.104 18.8293 14 19.9333 14C21.0373 14 21.9333 13.104 21.9333 12C21.9333 10.896 21.0373 10 19.9333 10Z" fill="#E30D05"/>
<mask id="mask0_601_1426" style="mask-type:luminance" maskUnits="userSpaceOnUse" x="3" y="10" width="19" height="4">
<path fill-rule="evenodd" clip-rule="evenodd" d="M3.93335 12C3.93335 10.896 4.82935 10 5.93335 10C7.03735 10 7.93335 10.896 7.93335 12C7.93335 13.104 7.03735 14 5.93335 14C4.82935 14 3.93335 13.104 3.93335 12ZM12.9333 10C11.8293 10 10.9333 10.896 10.9333 12C10.9333 13.104 11.8293 14 12.9333 14C14.0373 14 14.9333 13.104 14.9333 12C14.9333 10.896 14.0373 10 12.9333 10ZM19.9333 10C18.8293 10 17.9333 10.896 17.9333 12C17.9333 13.104 18.8293 14 19.9333 14C21.0373 14 21.9333 13.104 21.9333 12C21.9333 10.896 21.0373 10 19.9333 10Z" fill="white"/>
</mask>
<g mask="url(#mask0_601_1426)">
</g>
</svg>
