<svg width="24" height="24" viewBox="0 0 24 24" fill="none" xmlns="http://www.w3.org/2000/svg">
<g opacity="0.28">
<path d="M11.0837 9.25002H14.7503C14.9934 9.25002 15.2266 9.15344 15.3985 8.98154C15.5704 8.80963 15.667 8.57647 15.667 8.33335C15.667 8.09024 15.5704 7.85708 15.3985 7.68517C15.2266 7.51326 14.9934 7.41669 14.7503 7.41669H12.917V6.50002C12.917 6.25691 12.8204 6.02375 12.6485 5.85184C12.4766 5.67993 12.2434 5.58335 12.0003 5.58335C11.7572 5.58335 11.5241 5.67993 11.3521 5.85184C11.1802 6.02375 11.0837 6.25691 11.0837 6.50002V7.41669C10.3543 7.41669 9.65484 7.70642 9.13912 8.22214C8.62339 8.73787 8.33366 9.43734 8.33366 10.1667C8.33366 10.896 8.62339 11.5955 9.13912 12.1112C9.65484 12.627 10.3543 12.9167 11.0837 12.9167H12.917C13.1601 12.9167 13.3933 13.0133 13.5652 13.1852C13.7371 13.3571 13.8337 13.5902 13.8337 13.8334C13.8337 14.0765 13.7371 14.3096 13.5652 14.4815C13.3933 14.6534 13.1601 14.75 12.917 14.75H9.25033C9.00722 14.75 8.77406 14.8466 8.60215 15.0185C8.43024 15.1904 8.33366 15.4236 8.33366 15.6667C8.33366 15.9098 8.43024 16.143 8.60215 16.3149C8.77406 16.4868 9.00722 16.5834 9.25033 16.5834H11.0837V17.5C11.0837 17.7431 11.1802 17.9763 11.3521 18.1482C11.5241 18.3201 11.7572 18.4167 12.0003 18.4167C12.2434 18.4167 12.4766 18.3201 12.6485 18.1482C12.8204 17.9763 12.917 17.7431 12.917 17.5V16.5834C13.6463 16.5834 14.3458 16.2936 14.8615 15.7779C15.3773 15.2622 15.667 14.5627 15.667 13.8334C15.667 13.104 15.3773 12.4045 14.8615 11.8888C14.3458 11.3731 13.6463 11.0834 12.917 11.0834H11.0837C10.8405 11.0834 10.6074 10.9868 10.4355 10.8149C10.2636 10.643 10.167 10.4098 10.167 10.1667C10.167 9.92357 10.2636 9.69041 10.4355 9.51851C10.6074 9.3466 10.8405 9.25002 11.0837 9.25002ZM12.0003 1.91669C10.006 1.91669 8.05653 2.50806 6.39833 3.61604C4.74013 4.72401 3.44773 6.29881 2.68454 8.1413C1.92136 9.98378 1.72168 12.0112 2.11075 13.9672C2.49981 15.9232 3.46016 17.7198 4.87034 19.13C6.28052 20.5402 8.07719 21.5005 10.0332 21.8896C11.9891 22.2787 14.0166 22.079 15.8591 21.3158C17.7015 20.5526 19.2763 19.2602 20.3843 17.602C21.4923 15.9438 22.0837 13.9943 22.0837 12C22.0837 9.32575 21.0213 6.76102 19.1303 4.87003C17.2393 2.97904 14.6746 1.91669 12.0003 1.91669ZM12.0003 20.25C10.3686 20.25 8.77358 19.7662 7.41688 18.8596C6.06017 17.9531 5.00275 16.6646 4.37832 15.1572C3.7539 13.6497 3.59052 11.9909 3.90885 10.3905C4.22718 8.79018 5.01292 7.32017 6.1667 6.16639C7.32048 5.01261 8.79049 4.22687 10.3908 3.90854C11.9912 3.59021 13.65 3.75359 15.1575 4.37801C16.665 5.00244 17.9534 6.05986 18.86 7.41657C19.7665 8.77327 20.2503 10.3683 20.2503 12C20.2503 14.1881 19.3811 16.2865 17.834 17.8337C16.2868 19.3808 14.1884 20.25 12.0003 20.25Z" fill="black"/>
</g>
</svg>
