<svg width="24" height="24" viewBox="0 0 24 24" fill="none" xmlns="http://www.w3.org/2000/svg">
<g opacity="0.28">
<path d="M23 9.32C23.0626 9.06306 23.027 8.79199 22.9 8.56C22.5759 7.99764 22.144 7.50481 21.6289 7.1098C21.1139 6.71478 20.526 6.42535 19.8988 6.25811C19.2717 6.09087 18.6177 6.04912 17.9744 6.13524C17.331 6.22137 16.7111 6.43368 16.15 6.76L14 8L8.99999 5.65C8.85784 5.57636 8.70008 5.53792 8.53999 5.53792C8.37989 5.53792 8.22214 5.57636 8.07999 5.65L5.07999 7.38C4.93173 7.46552 4.8079 7.58766 4.72035 7.73474C4.63281 7.88181 4.58448 8.0489 4.57999 8.22C4.57515 8.39237 4.61496 8.56306 4.69556 8.7155C4.77616 8.86794 4.89481 8.99695 5.03999 9.09L8.33999 11.17L6.59999 12.17L1.81999 12.75C1.62783 12.7738 1.44671 12.8528 1.29861 12.9775C1.15051 13.1022 1.0418 13.2673 0.985679 13.4526C0.929557 13.6379 0.928438 13.8355 0.982457 14.0214C1.03648 14.2074 1.14331 14.3736 1.28999 14.5L4.82999 17.56C5.29604 18.0048 5.89289 18.2877 6.53223 18.367C7.17158 18.4462 7.81945 18.3176 8.37999 18L22.5 9.93C22.6203 9.86753 22.7267 9.78124 22.8127 9.67638C22.8986 9.57151 22.9624 9.45026 23 9.32ZM7.46999 16.32C7.2779 16.4257 7.05639 16.4653 6.83957 16.4328C6.62274 16.4003 6.42261 16.2974 6.26999 16.14L4.36999 14.51L7.09999 14.18C7.23414 14.1628 7.36342 14.1186 7.47999 14.05L10.84 12.12C10.9897 12.0336 11.1144 11.9099 11.2021 11.7609C11.2897 11.6119 11.3372 11.4428 11.34 11.27C11.342 11.0984 11.2999 10.9291 11.2176 10.7785C11.1352 10.6279 11.0155 10.501 10.87 10.41L7.56999 8.32L8.66999 7.69L13.67 10.01C13.8121 10.0836 13.9699 10.1221 14.13 10.1221C14.2901 10.1221 14.4478 10.0836 14.59 10.01L17.15 8.53C17.6746 8.236 18.2755 8.10645 18.8746 8.15816C19.4737 8.20988 20.0435 8.44046 20.51 8.82L7.46999 16.32Z" fill="black"/>
</g>
</svg>
