<svg width="16" height="16" viewBox="0 0 16 16" fill="none" xmlns="http://www.w3.org/2000/svg">
<g clip-path="url(#clip0_1_841)">
<path d="M13.19 3.5075C13.1131 3.28627 12.9693 3.09447 12.7784 2.95873C12.5876 2.82298 12.3592 2.75003 12.125 2.75H3.875C3.38375 2.75 2.96375 3.065 2.81 3.5075L1.25 8V14C1.25 14.4125 1.5875 14.75 2 14.75H2.75C2.94891 14.75 3.13968 14.671 3.28033 14.5303C3.42098 14.3897 3.5 14.1989 3.5 14V13.25H12.5V14C12.5 14.4125 12.8375 14.75 13.25 14.75H14C14.1989 14.75 14.3897 14.671 14.5303 14.5303C14.671 14.3897 14.75 14.1989 14.75 14V8L13.19 3.5075ZM3.875 11C3.2525 11 2.75 10.4975 2.75 9.875C2.75 9.2525 3.2525 8.75 3.875 8.75C4.4975 8.75 5 9.2525 5 9.875C5 10.4975 4.4975 11 3.875 11ZM12.125 11C11.5025 11 11 10.4975 11 9.875C11 9.2525 11.5025 8.75 12.125 8.75C12.7475 8.75 13.25 9.2525 13.25 9.875C13.25 10.4975 12.7475 11 12.125 11ZM2.75 7.25L3.875 3.875H12.125L13.25 7.25H2.75Z" fill="#5B9CEC"/>
</g>
<defs>
<clipPath id="clip0_1_841">
<rect width="16" height="16" fill="white"/>
</clipPath>
</defs>
</svg>
