<svg width="16" height="16" viewBox="0 0 16 16" fill="none" xmlns="http://www.w3.org/2000/svg">
<g clip-path="url(#clip0_1_876)">
<path d="M8 0.25C3.725 0.25 0.25 3.725 0.25 8C0.25 12.275 3.725 15.75 8 15.75C12.275 15.75 15.75 12.275 15.75 8C15.75 3.725 12.275 0.25 8 0.25ZM7.34 7.04C7.475 7.175 7.655 7.25 7.845 7.25H8.155C8.745 7.25 9.305 7.48 9.725 7.9C10.14 8.32 10.375 8.875 10.375 9.47C10.375 10.485 9.68 11.335 8.75 11.6V11.79C8.75 12.205 8.41 12.54 8 12.54C7.585 12.54 7.25 12.205 7.25 11.79V11.69H6.375C5.965 11.69 5.625 11.355 5.625 10.94C5.625 10.525 5.965 10.19 6.375 10.19H8.155C8.55 10.19 8.875 9.865 8.875 9.47C8.875 9.275 8.8 9.095 8.66 8.96C8.525 8.825 8.345 8.75 8.155 8.75H7.845C7.26 8.75 6.705 8.52 6.28 8.105C6.07259 7.89846 5.90797 7.65303 5.79557 7.38276C5.68318 7.11249 5.62521 6.82271 5.625 6.53C5.625 5.515 6.315 4.665 7.25 4.405V4.21C7.25 3.795 7.585 3.46 8 3.46C8.41 3.46 8.75 3.795 8.75 4.21V4.31H9.625C10.035 4.31 10.375 4.645 10.375 5.06C10.375 5.475 10.035 5.81 9.625 5.81H7.845C7.45 5.81 7.125 6.135 7.125 6.53C7.125 6.725 7.2 6.905 7.34 7.04Z" fill="#5B9CEC"/>
</g>
<defs>
<clipPath id="clip0_1_876">
<rect width="16" height="16" fill="white"/>
</clipPath>
</defs>
</svg>
