<svg width="16" height="16" viewBox="0 0 16 16" fill="none" xmlns="http://www.w3.org/2000/svg">
<path d="M3.04761 1.14285C2.94749 1.14264 2.84831 1.16219 2.75576 1.20041C2.66322 1.23863 2.57914 1.29475 2.50834 1.36554C2.43754 1.43634 2.38142 1.52043 2.34321 1.61298C2.30499 1.70552 2.28543 1.8047 2.28565 1.90482V14.0952C2.28565 14.4762 2.66654 14.8572 3.04761 14.8572H6.85707V12.5714C6.85707 12.1494 7.25991 11.8095 7.61904 11.8095H8.38082C8.73995 11.8095 9.14279 12.1494 9.14279 12.5714V14.8572H12.9523C13.3333 14.8572 13.7142 14.4762 13.7142 14.0952V1.90501C13.7144 1.80488 13.6949 1.7057 13.6567 1.61316C13.6184 1.52061 13.5623 1.43652 13.4915 1.36572C13.4207 1.29492 13.3366 1.23882 13.2441 1.2006C13.1516 1.16238 13.0524 1.14282 12.9523 1.14303L3.04761 1.14285ZM4.57136 4.82857C4.57136 4.60765 4.75045 4.42857 4.97136 4.42857H6.45707C6.67799 4.42857 6.85707 4.60765 6.85707 4.82857V5.55232C6.85707 5.77323 6.67799 5.95232 6.45707 5.95232H4.97136C4.75045 5.95232 4.57136 5.77323 4.57136 5.55232V4.82857ZM9.14279 4.82857C9.14279 4.60765 9.32188 4.42857 9.54279 4.42857H11.0285C11.2494 4.42857 11.4285 4.60765 11.4285 4.82857V5.55232C11.4285 5.77323 11.2494 5.95232 11.0285 5.95232H9.54279C9.32188 5.95232 9.14279 5.77323 9.14279 5.55232V4.82857ZM4.57136 8.4C4.57136 8.17908 4.75045 8 4.97136 8H6.45707C6.67799 8 6.85707 8.17908 6.85707 8.4V9.12375C6.85707 9.34466 6.67799 9.52375 6.45707 9.52375H4.97136C4.75045 9.52375 4.57136 9.34466 4.57136 9.12375V8.4ZM9.14279 8.4C9.14279 8.17908 9.32188 8 9.54279 8H11.0285C11.2494 8 11.4285 8.17908 11.4285 8.4V9.12375C11.4285 9.34466 11.2494 9.52375 11.0285 9.52375H9.54279C9.32188 9.52375 9.14279 9.34466 9.14279 9.12375V8.4Z" fill="#5B9CEC"/>
</svg>
