<svg width="16" height="16" viewBox="0 0 16 16" fill="none" xmlns="http://www.w3.org/2000/svg">
<path d="M14.2856 4.19052C14.2857 4.0865 14.2646 3.98354 14.2235 3.88799C14.1824 3.79244 14.1222 3.70632 14.0465 3.63494C13.9708 3.56356 13.8813 3.50843 13.7836 3.47295C13.6858 3.43746 13.5818 3.42237 13.4779 3.42862H13.3332C12.3894 3.43883 11.4604 3.19442 10.6438 2.72111C9.82724 2.2478 9.15339 1.5631 8.69318 0.739092V0.693378C8.66434 0.651858 8.63113 0.613545 8.59413 0.579092C8.55994 0.541824 8.5216 0.508592 8.47985 0.480044L8.42652 0.43433H8.35032L8.18271 0.380997H8.03794H7.9008C7.84815 0.389151 7.79687 0.404535 7.74842 0.426711H7.67223H7.62651C7.585 0.455555 7.54668 0.48876 7.51223 0.525759C7.47294 0.560866 7.4395 0.602018 7.41318 0.647663C7.39609 0.660933 7.38074 0.676291 7.36747 0.693378C6.90633 1.53619 6.2261 2.2388 5.39864 2.72696C4.57118 3.21512 3.62723 3.4707 2.66651 3.46671H2.56747C2.46256 3.45286 2.35592 3.46102 2.25434 3.49066C2.15276 3.5203 2.05847 3.57078 1.97747 3.63887C1.89648 3.70697 1.83055 3.79119 1.7839 3.88616C1.73725 3.98114 1.7109 4.0848 1.70651 4.19052C1.70651 4.95243 1.70651 5.67624 1.70651 6.47624V6.79624C1.61096 8.72967 2.1567 10.6405 3.25893 12.2319C4.36116 13.8232 5.95816 15.0059 7.80175 15.5962C7.86593 15.6154 7.93299 15.6231 7.99985 15.6191C8.06312 15.6265 8.12705 15.6265 8.19032 15.6191C10.0343 15.0287 11.6336 13.8496 12.7428 12.2627C13.8521 10.6759 14.4102 8.76887 14.3313 6.83433C14.3313 5.88957 14.3313 5.021 14.2856 4.19052ZM11.2379 7.04766L7.71794 10.5677C7.6378 10.6496 7.53819 10.7099 7.42842 10.7429C7.2915 10.8637 7.11575 10.9313 6.93318 10.9334C6.7333 10.9325 6.54176 10.8532 6.39985 10.7124L4.87604 9.18862C4.79628 9.12031 4.7315 9.03626 4.68577 8.94174C4.64004 8.84721 4.61434 8.74425 4.61029 8.63932C4.60623 8.5344 4.62392 8.42976 4.66222 8.33199C4.70052 8.23422 4.75863 8.14542 4.83288 8.07117C4.90713 7.99692 4.99593 7.93882 5.0937 7.90051C5.19147 7.86221 5.2961 7.84453 5.40103 7.84858C5.50596 7.85263 5.60892 7.87833 5.70344 7.92406C5.79797 7.9698 5.88202 8.03457 5.95032 8.11433L6.95604 9.12005L10.1332 5.9429C10.2789 5.81808 10.4664 5.75286 10.6582 5.76026C10.8499 5.76767 11.0318 5.84716 11.1675 5.98285C11.3032 6.11855 11.3827 6.30044 11.3901 6.49219C11.3975 6.68395 11.3323 6.87143 11.2075 7.01719L11.2379 7.04766Z" fill="#5B9CEC"/>
</svg>
