<svg width="16" height="16" viewBox="0 0 16 16" fill="none" xmlns="http://www.w3.org/2000/svg">
<g clip-path="url(#clip0_1_867)">
<path d="M13.3267 2.66668C13.3267 1.93001 12.7367 1.33334 12.0001 1.33334H6.66675L2.66675 5.33334V13.3333C2.66675 14.07 3.26341 14.6667 4.00008 14.6667H12.0067C12.7434 14.6667 13.3334 14.07 13.3334 13.3333L13.3267 2.66668ZM7.00008 11.6C7.00008 11.8209 6.821 12 6.60008 12H5.06675C4.84583 12 4.66675 11.8209 4.66675 11.6V8.73334C4.66675 8.51243 4.84583 8.33334 5.06675 8.33334H6.60008C6.821 8.33334 7.00008 8.51243 7.00008 8.73334V11.6ZM11.3334 11.6C11.3334 11.8209 11.1543 12 10.9334 12H9.40008C9.17917 12 9.00008 11.8209 9.00008 11.6V8.73334C9.00008 8.51243 9.17917 8.33334 9.40008 8.33334H10.9334C11.1543 8.33334 11.3334 8.51243 11.3334 8.73334V11.6Z" fill="#5B9CEC"/>
</g>
<defs>
<clipPath id="clip0_1_867">
<rect width="16" height="16" fill="white"/>
</clipPath>
</defs>
</svg>
