<svg width="16" height="16" viewBox="0 0 16 16" fill="none" xmlns="http://www.w3.org/2000/svg">
<g clip-path="url(#clip0_1_850)">
<path d="M13.6667 2C13.63 2 13.5967 2.00333 13.5633 2.01667L10 3.4L6 2L2.24333 3.26667C2.10333 3.31333 2 3.43333 2 3.58667V13.6667C2.00025 13.7192 2.01289 13.7709 2.03687 13.8177C2.06086 13.8644 2.09552 13.9049 2.13805 13.9357C2.18058 13.9665 2.22979 13.9869 2.28167 13.9952C2.33355 14.0035 2.38665 13.9994 2.43667 13.9833L6 12.6L10 14L13.76 12.7367C13.9 12.6867 14 12.5667 14 12.4133V2.33333C14 2.15 13.85 2 13.6667 2ZM10 12.6667L6 11.2633V3.33333L10 4.73667V12.6667Z" fill="#5B9CEC"/>
</g>
<defs>
<clipPath id="clip0_1_850">
<rect width="16" height="16" fill="white"/>
</clipPath>
</defs>
</svg>
