<svg width="16" height="16" viewBox="0 0 16 16" fill="none" xmlns="http://www.w3.org/2000/svg">
<path d="M11.8016 6.14735L13.0506 4.38029C13.3882 3.90297 13.6518 3.26279 13.6393 2.95048C13.6266 2.63791 13.3628 2.37468 13.0494 2.36154C12.7362 2.34884 12.0954 2.61228 11.6183 2.95L9.85146 4.19977L4.91837 1.84256C4.39114 1.59066 3.69756 1.72106 3.36957 2.1347C3.04157 2.54833 3.14235 3.18359 3.59467 3.55419L7.53811 6.78515L4.58994 10.0523L3.19924 9.63234C2.63983 9.46287 2.01321 9.48876 1.80034 9.6892C1.58724 9.8899 1.78388 10.3493 2.23948 10.7158L3.50141 11.7305C3.50141 11.7305 3.45393 11.9512 3.39497 12.2236C3.33622 12.4957 3.50871 12.6678 3.78055 12.6076L4.27252 12.4983L5.28636 13.7601C5.65289 14.2158 6.11247 14.4127 6.31312 14.2C6.51356 13.9874 6.53939 13.3613 6.36997 12.8015L5.94983 11.41L9.21568 8.46104L12.4463 12.4058C12.8166 12.8582 13.4519 12.959 13.8654 12.6307C14.2787 12.3026 14.4096 11.6086 14.1575 11.081L11.8016 6.14735Z" fill="#5B9CEC"/>
</svg>
